<svg width="260" height="260" viewBox="0 0 260 260" fill="none" xmlns="http://www.w3.org/2000/svg">
<path d="M137.744 130.264C137.744 148.888 121.328 163 99.056 163H56.048V122.968H76.016V146.488H99.056C110.096 146.488 118.064 140.344 118.064 131.128C118.064 122.104 109.808 115.48 99.056 115.48H56.048L68.72 98.776H99.056C121.52 98.776 137.744 111.736 137.744 130.264Z" fill="white"/>
<path d="M208.904 163H134.216L146.216 146.488H162.344C166.184 146.488 170.696 146.488 173.768 146.68C172.04 144.376 169.352 140.44 167.24 137.368L155.72 120.376L125.576 163H102.056L143.24 104.92C145.928 101.176 149.864 97.72 156.104 97.72C162.056 97.72 165.992 100.888 168.776 104.92L208.904 163Z" fill="white"/>
<circle cx="130" cy="130" r="128" stroke="white" stroke-width="4"/>
</svg>
